<?xml version="1.0"?>
<!-- Created by MetaPost 1.803 on 2016.08.17:0255 -->
<svg version="1.1" xmlns="http://www.w3.org/2000/svg" xmlns:xlink="http://www.w3.org/1999/xlink" width="108.500000" height="125.499695" viewBox="0 0 108.500000 125.499695">
<!-- Original BoundingBox: -54.250000 -60.250000 54.250000 65.249695 -->
  <path d="M0.000000 69.000000C0.000000 66.790863,1.790863 65.000000,4.000000 65.000000L104.000000 65.000000C106.209137 65.000000,108.000000 66.790863,108.000000 69.000000L108.000000 121.000000C108.000000 123.209137,106.209137 125.000000,104.000000 125.000000L4.000000 125.000000C1.790863 125.000000,0.000000 123.209137,0.000000 121.000000Z" style="fill: rgb(100.000000%,82.353210%,58.824158%);stroke: none;"></path>
  <path d="M0.000000 69.000000C0.000000 66.790863,1.790863 65.000000,4.000000 65.000000L104.000000 65.000000C106.209137 65.000000,108.000000 66.790863,108.000000 69.000000L108.000000 121.000000C108.000000 123.209137,106.209137 125.000000,104.000000 125.000000L4.000000 125.000000C1.790863 125.000000,0.000000 123.209137,0.000000 121.000000Z" style="stroke:rgb(0.000000%,0.000000%,0.000000%); stroke-width: 0.500000;stroke-linecap: round;stroke-linejoin: round;stroke-miterlimit: 10.000000;fill: none;"></path>
  <path d="M9.000305 45.000000C9.000305 50.522751,13.477402 54.999847,19.000153 54.999847C24.522903 54.999847,29.000000 50.522751,29.000000 45.000000C29.000000 31.192871,40.192871 20.000000,54.000000 20.000000C67.807129 20.000000,79.000000 31.192871,79.000000 45.000000L79.000000 65.000000L98.999695 65.000000L98.999695 45.000000C98.999695 20.147354,78.852646 0.000305,54.000000 0.000305C29.147354 0.000305,9.000305 20.147354,9.000305 45.000000Z" style="fill: rgb(89.999390%,89.999390%,89.999390%);stroke: none;"></path>
  <path d="M9.000305 45.000000C9.000305 50.522751,13.477402 54.999847,19.000153 54.999847C24.522903 54.999847,29.000000 50.522751,29.000000 45.000000C29.000000 31.192871,40.192871 20.000000,54.000000 20.000000C67.807129 20.000000,79.000000 31.192871,79.000000 45.000000L79.000000 65.000000L98.999695 65.000000L98.999695 45.000000C98.999695 20.147354,78.852646 0.000305,54.000000 0.000305C29.147354 0.000305,9.000305 20.147354,9.000305 45.000000Z" style="stroke:rgb(0.000000%,0.000000%,0.000000%); stroke-width: 0.500000;stroke-linecap: round;stroke-linejoin: round;stroke-miterlimit: 10.000000;fill: none;"></path>
</svg>
