<?xml version="1.0"?>
<!-- Created by MetaPost 1.803 on 2016.08.16:0618 -->
<svg version="1.1" xmlns="http://www.w3.org/2000/svg" xmlns:xlink="http://www.w3.org/1999/xlink" width="200.500000" height="200.500000" viewBox="0 0 200.500000 200.500000">
<!-- Original BoundingBox: -100.250000 -100.250000 100.250000 100.250000 -->
  <path d="M200.000000 100.000000C200.000000 73.477173,189.462280 48.043823,170.709229 29.290771C151.956177 10.537720,126.522827 -0.000000,100.000000 -0.000000C73.477173 -0.000000,48.043823 10.537720,29.290771 29.290771C10.537720 48.043823,0.000000 73.477173,0.000000 100.000000C0.000000 126.522827,10.537720 151.956177,29.290771 170.709229C48.043823 189.462280,73.477173 200.000000,100.000000 200.000000C126.522827 200.000000,151.956177 189.462280,170.709229 170.709229C189.462280 151.956177,200.000000 126.522827,200.000000 100.000000Z" style="fill: rgb(100.000000%,82.353210%,15.686035%);stroke: none;"></path>
  <path d="M85.000610 75.000000C85.000610 72.347549,83.946777 69.804062,82.071350 67.928650C80.195938 66.053223,77.652451 64.999390,75.000000 64.999390C72.347549 64.999390,69.804062 66.053223,67.928650 67.928650C66.053223 69.804062,64.999390 72.347549,64.999390 75.000000C64.999390 77.652451,66.053223 80.195938,67.928650 82.071350C69.804062 83.946777,72.347549 85.000610,75.000000 85.000610C77.652451 85.000610,80.195938 83.946777,82.071350 82.071350C83.946777 80.195938,85.000610 77.652451,85.000610 75.000000Z" style="fill: rgb(66.667175%,39.215088%,7.843018%);stroke: none;"></path>
  <path d="M135.000610 75.000000C135.000610 72.347549,133.946777 69.804062,132.071350 67.928650C130.195938 66.053223,127.652451 64.999390,125.000000 64.999390C122.347549 64.999390,119.804062 66.053223,117.928650 67.928650C116.053223 69.804062,114.999390 72.347549,114.999390 75.000000C114.999390 77.652451,116.053223 80.195938,117.928650 82.071350C119.804062 83.946777,122.347549 85.000610,125.000000 85.000610C127.652451 85.000610,130.195938 83.946777,132.071350 82.071350C133.946777 80.195938,135.000610 77.652451,135.000610 75.000000Z" style="fill: rgb(66.667175%,39.215088%,7.843018%);stroke: none;"></path>
  <path d="M200.000000 100.000000C200.000000 73.477173,189.462280 48.043823,170.709229 29.290771C151.956177 10.537720,126.522827 -0.000000,100.000000 -0.000000C73.477173 -0.000000,48.043823 10.537720,29.290771 29.290771C10.537720 48.043823,0.000000 73.477173,0.000000 100.000000C0.000000 126.522827,10.537720 151.956177,29.290771 170.709229C48.043823 189.462280,73.477173 200.000000,100.000000 200.000000C126.522827 200.000000,151.956177 189.462280,170.709229 170.709229C189.462280 151.956177,200.000000 126.522827,200.000000 100.000000Z" style="stroke:rgb(0.000000%,0.000000%,0.000000%); stroke-width: 0.500000;stroke-linecap: round;stroke-linejoin: round;stroke-miterlimit: 10.000000;fill: none;"></path>
  <path d="M85.000610 75.000000C85.000610 72.347549,83.946777 69.804062,82.071350 67.928650C80.195938 66.053223,77.652451 64.999390,75.000000 64.999390C72.347549 64.999390,69.804062 66.053223,67.928650 67.928650C66.053223 69.804062,64.999390 72.347549,64.999390 75.000000C64.999390 77.652451,66.053223 80.195938,67.928650 82.071350C69.804062 83.946777,72.347549 85.000610,75.000000 85.000610C77.652451 85.000610,80.195938 83.946777,82.071350 82.071350C83.946777 80.195938,85.000610 77.652451,85.000610 75.000000Z" style="stroke:rgb(0.000000%,0.000000%,0.000000%); stroke-width: 0.500000;stroke-linecap: round;stroke-linejoin: round;stroke-miterlimit: 10.000000;fill: none;"></path>
  <path d="M135.000610 75.000000C135.000610 72.347549,133.946777 69.804062,132.071350 67.928650C130.195938 66.053223,127.652451 64.999390,125.000000 64.999390C122.347549 64.999390,119.804062 66.053223,117.928650 67.928650C116.053223 69.804062,114.999390 72.347549,114.999390 75.000000C114.999390 77.652451,116.053223 80.195938,117.928650 82.071350C119.804062 83.946777,122.347549 85.000610,125.000000 85.000610C127.652451 85.000610,130.195938 83.946777,132.071350 82.071350C133.946777 80.195938,135.000610 77.652451,135.000610 75.000000Z" style="stroke:rgb(0.000000%,0.000000%,0.000000%); stroke-width: 0.500000;stroke-linecap: round;stroke-linejoin: round;stroke-miterlimit: 10.000000;fill: none;"></path>
  <path d="M25.000000 108.000183C49.965149 109.999420,74.951828 111.999512,100.000000 111.999512C125.048172 111.999512,150.034851 109.999420,175.000000 108.000183C165.171814 144.679443,136.883575 175.000000,100.000000 175.000000C63.116425 175.000000,34.828186 144.679443,25.000000 108.000183Z" style="fill: rgb(78.431702%,54.902649%,9.803772%);stroke: none;"></path>
  <path d="M25.000000 108.000183C49.965149 109.999420,74.951828 111.999512,100.000000 111.999512C125.048172 111.999512,150.034851 109.999420,175.000000 108.000183C165.171814 144.679443,136.883575 175.000000,100.000000 175.000000C63.116425 175.000000,34.828186 144.679443,25.000000 108.000183Z" style="stroke:rgb(0.000000%,0.000000%,0.000000%); stroke-width: 0.500000;stroke-linecap: round;stroke-linejoin: round;stroke-miterlimit: 10.000000;fill: none;"></path>
  <path d="M35.000610 114.999390C56.507080 118.328018,78.237473 119.999695,100.000000 119.999695C121.762527 119.999695,143.492920 118.328018,164.999390 114.999390L160.000610 130.000305C140.689011 136.620712,120.414886 139.999390,100.000000 139.999390C79.585114 139.999390,59.310989 136.620712,39.999390 130.000305Z" style="fill: rgb(100.000000%,100.000000%,100.000000%);stroke: none;"></path>
  <path d="M35.000610 114.999390C56.507080 118.328018,78.237473 119.999695,100.000000 119.999695C121.762527 119.999695,143.492920 118.328018,164.999390 114.999390L160.000610 130.000305C140.689011 136.620712,120.414886 139.999390,100.000000 139.999390C79.585114 139.999390,59.310989 136.620712,39.999390 130.000305Z" style="stroke:rgb(0.000000%,0.000000%,0.000000%); stroke-width: 0.500000;stroke-linecap: round;stroke-linejoin: round;stroke-miterlimit: 10.000000;fill: none;"></path>
</svg>
