<?xml version="1.0"?>
<!-- Created by MetaPost 1.803 on 2016.08.16:0726 -->
<svg version="1.1" xmlns="http://www.w3.org/2000/svg" xmlns:xlink="http://www.w3.org/1999/xlink" width="200.500000" height="150.500000" viewBox="0 0 200.500000 150.500000">
<!-- Original BoundingBox: -100.250000 -75.250000 100.250000 75.250000 -->
  <path d="M200.000000 75.000000C200.000000 55.107880,189.462280 36.032867,170.709229 21.968079C151.956177 7.903290,126.522827 -0.000000,100.000000 -0.000000C73.477173 -0.000000,48.043823 7.903290,29.290771 21.968079C10.537720 36.032867,0.000000 55.107880,0.000000 75.000000C0.000000 94.892120,10.537720 113.967133,29.290771 128.031921C48.043823 142.096710,73.477173 150.000000,100.000000 150.000000C126.522827 150.000000,151.956177 142.096710,170.709229 128.031921C189.462280 113.967133,200.000000 94.892120,200.000000 75.000000Z" style="fill: rgb(100.000000%,82.353210%,15.686035%);stroke: none;"></path>
  <path d="M80.000305 55.000305C80.000305 53.010971,78.946472 51.103348,77.071045 49.696793C75.195633 48.290222,72.652145 47.499847,69.999695 47.499847C67.347244 47.499847,64.803757 48.290222,62.928345 49.696793C61.052917 51.103348,59.999084 53.010971,59.999084 55.000305C59.999084 56.989639,61.052917 58.897263,62.928345 60.303818C64.803757 61.710388,67.347244 62.500763,69.999695 62.500763C72.652145 62.500763,75.195633 61.710388,77.071045 60.303818C78.946472 58.897263,80.000305 56.989639,80.000305 55.000305Z" style="fill: rgb(0.000000%,0.000000%,0.000000%);stroke: none;"></path>
  <path d="M140.000916 55.000305C140.000916 53.010971,138.947083 51.103348,137.071655 49.696793C135.196243 48.290222,132.652756 47.499847,130.000305 47.499847C127.347855 47.499847,124.804367 48.290222,122.928955 49.696793C121.053528 51.103348,119.999695 53.010971,119.999695 55.000305C119.999695 56.989639,121.053528 58.897263,122.928955 60.303818C124.804367 61.710388,127.347855 62.500763,130.000305 62.500763C132.652756 62.500763,135.196243 61.710388,137.071655 60.303818C138.947083 58.897263,140.000916 56.989639,140.000916 55.000305Z" style="fill: rgb(0.000000%,0.000000%,0.000000%);stroke: none;"></path>
  <path d="M200.000000 75.000000C200.000000 55.107880,189.462280 36.032867,170.709229 21.968079C151.956177 7.903290,126.522827 -0.000000,100.000000 -0.000000C73.477173 -0.000000,48.043823 7.903290,29.290771 21.968079C10.537720 36.032867,0.000000 55.107880,0.000000 75.000000C0.000000 94.892120,10.537720 113.967133,29.290771 128.031921C48.043823 142.096710,73.477173 150.000000,100.000000 150.000000C126.522827 150.000000,151.956177 142.096710,170.709229 128.031921C189.462280 113.967133,200.000000 94.892120,200.000000 75.000000Z" style="stroke:rgb(0.000000%,0.000000%,0.000000%); stroke-width: 0.500000;stroke-linecap: round;stroke-linejoin: round;stroke-miterlimit: 10.000000;fill: none;"></path>
  <path d="M80.000305 55.000305C80.000305 53.010971,78.946472 51.103348,77.071045 49.696793C75.195633 48.290222,72.652145 47.499847,69.999695 47.499847C67.347244 47.499847,64.803757 48.290222,62.928345 49.696793C61.052917 51.103348,59.999084 53.010971,59.999084 55.000305C59.999084 56.989639,61.052917 58.897263,62.928345 60.303818C64.803757 61.710388,67.347244 62.500763,69.999695 62.500763C72.652145 62.500763,75.195633 61.710388,77.071045 60.303818C78.946472 58.897263,80.000305 56.989639,80.000305 55.000305Z" style="stroke:rgb(0.000000%,0.000000%,0.000000%); stroke-width: 0.500000;stroke-linecap: round;stroke-linejoin: round;stroke-miterlimit: 10.000000;fill: none;"></path>
  <path d="M140.000916 55.000305C140.000916 53.010971,138.947083 51.103348,137.071655 49.696793C135.196243 48.290222,132.652756 47.499847,130.000305 47.499847C127.347855 47.499847,124.804367 48.290222,122.928955 49.696793C121.053528 51.103348,119.999695 53.010971,119.999695 55.000305C119.999695 56.989639,121.053528 58.897263,122.928955 60.303818C124.804367 61.710388,127.347855 62.500763,130.000305 62.500763C132.652756 62.500763,135.196243 61.710388,137.071655 60.303818C138.947083 58.897263,140.000916 56.989639,140.000916 55.000305Z" style="stroke:rgb(0.000000%,0.000000%,0.000000%); stroke-width: 0.500000;stroke-linecap: round;stroke-linejoin: round;stroke-miterlimit: 10.000000;fill: none;"></path>
  <path d="M25.000000 83.000183C33.325180 83.769409,41.651901 84.538773,50.000000 85.000610C58.327591 85.461319,66.668640 85.615555,75.000000 86.000061C83.332443 86.384613,91.657928 86.999512,100.000000 86.999512C108.342072 86.999512,116.667557 86.384613,125.000000 86.000061C133.331360 85.615555,141.672409 85.461319,150.000000 85.000610C158.348099 84.538773,166.674820 83.769409,175.000000 83.000183C171.106827 97.529663,162.178207 110.169785,150.000000 119.000244C142.463013 124.465347,133.904037 128.293320,125.000000 130.999756C116.882263 133.467194,108.487015 135.000610,100.000000 135.000610C91.512985 135.000610,83.117737 133.467194,75.000000 130.999756C66.095963 128.293320,57.536987 124.465347,50.000000 119.000244C37.821793 110.169785,28.893173 97.529663,25.000000 83.000183Z" style="fill: rgb(100.000000%,100.000000%,100.000000%);stroke: none;"></path>
  <path d="M25.000000 83.000183C33.325180 83.769409,41.651901 84.538773,50.000000 85.000610C58.327591 85.461319,66.668640 85.615555,75.000000 86.000061C83.332443 86.384613,91.657928 86.999512,100.000000 86.999512C108.342072 86.999512,116.667557 86.384613,125.000000 86.000061C133.331360 85.615555,141.672409 85.461319,150.000000 85.000610C158.348099 84.538773,166.674820 83.769409,175.000000 83.000183C171.106827 97.529663,162.178207 110.169785,150.000000 119.000244C142.463013 124.465347,133.904037 128.293320,125.000000 130.999756C116.882263 133.467194,108.487015 135.000610,100.000000 135.000610C91.512985 135.000610,83.117737 133.467194,75.000000 130.999756C66.095963 128.293320,57.536987 124.465347,50.000000 119.000244C37.821793 110.169785,28.893173 97.529663,25.000000 83.000183Z" style="stroke:rgb(0.000000%,0.000000%,0.000000%); stroke-width: 4.000000;stroke-linecap: round;stroke-linejoin: round;stroke-miterlimit: 10.000000;fill: none;"></path>
  <path d="M50.000000 85.000610L50.000000 119.000244" style="stroke:rgb(0.000000%,0.000000%,0.000000%); stroke-width: 3.000000;stroke-linecap: round;stroke-linejoin: round;stroke-miterlimit: 10.000000;fill: none;"></path>
  <path d="M75.000000 86.000061L75.000000 130.999756" style="stroke:rgb(0.000000%,0.000000%,0.000000%); stroke-width: 3.000000;stroke-linecap: round;stroke-linejoin: round;stroke-miterlimit: 10.000000;fill: none;"></path>
  <path d="M100.000000 86.999512L100.000000 135.000610" style="stroke:rgb(0.000000%,0.000000%,0.000000%); stroke-width: 3.000000;stroke-linecap: round;stroke-linejoin: round;stroke-miterlimit: 10.000000;fill: none;"></path>
  <path d="M125.000000 86.000061L125.000000 130.999756" style="stroke:rgb(0.000000%,0.000000%,0.000000%); stroke-width: 3.000000;stroke-linecap: round;stroke-linejoin: round;stroke-miterlimit: 10.000000;fill: none;"></path>
  <path d="M150.000000 85.000610L150.000000 119.000244" style="stroke:rgb(0.000000%,0.000000%,0.000000%); stroke-width: 3.000000;stroke-linecap: round;stroke-linejoin: round;stroke-miterlimit: 10.000000;fill: none;"></path>
</svg>
