<?xml version="1.0"?>
<!-- Created by MetaPost 1.803 on 2016.08.21:0314 -->
<svg version="1.1" xmlns="http://www.w3.org/2000/svg" xmlns:xlink="http://www.w3.org/1999/xlink" width="200.500000" height="200.500000" viewBox="0 0 200.500000 200.500000">
<!-- Original BoundingBox: -100.250000 -100.250000 100.250000 100.250000 -->
  <path d="M200.000000 100.000000C200.000000 73.477173,189.462280 48.043823,170.709229 29.290771C151.956177 10.537720,126.522827 -0.000000,100.000000 -0.000000C73.477173 -0.000000,48.043823 10.537720,29.290771 29.290771C10.537720 48.043823,0.000000 73.477173,0.000000 100.000000C0.000000 126.522827,10.537720 151.956177,29.290771 170.709229C48.043823 189.462280,73.477173 200.000000,100.000000 200.000000C126.522827 200.000000,151.956177 189.462280,170.709229 170.709229C189.462280 151.956177,200.000000 126.522827,200.000000 100.000000Z" style="fill: rgb(100.000000%,82.353210%,15.686035%);stroke: none;"></path>
  <path d="M200.000000 100.000000C200.000000 73.477173,189.462280 48.043823,170.709229 29.290771C151.956177 10.537720,126.522827 -0.000000,100.000000 -0.000000C73.477173 -0.000000,48.043823 10.537720,29.290771 29.290771C10.537720 48.043823,0.000000 73.477173,0.000000 100.000000C0.000000 126.522827,10.537720 151.956177,29.290771 170.709229C48.043823 189.462280,73.477173 200.000000,100.000000 200.000000C126.522827 200.000000,151.956177 189.462280,170.709229 170.709229C189.462280 151.956177,200.000000 126.522827,200.000000 100.000000Z" style="stroke:rgb(0.000000%,0.000000%,0.000000%); stroke-width: 0.500000;stroke-linecap: round;stroke-linejoin: round;stroke-miterlimit: 10.000000;fill: none;"></path>
  <path d="M80.000000 80.000305C80.000000 76.021881,78.419342 72.206879,75.606384 69.393921C72.793427 66.580963,68.978424 65.000305,65.000000 65.000305C61.021576 65.000305,57.206573 66.580963,54.393616 69.393921C51.580658 72.206879,50.000000 76.021881,50.000000 80.000305C50.000000 83.978729,51.580658 87.793732,54.393616 90.606689C57.206573 93.419647,61.021576 95.000305,65.000000 95.000305C68.978424 95.000305,72.793427 93.419647,75.606384 90.606689C78.419342 87.793732,80.000000 83.978729,80.000000 80.000305Z" style="fill: rgb(0.000000%,0.000000%,0.000000%);stroke: none;"></path>
  <path d="M150.000000 80.000305C150.000000 76.021881,148.419342 72.206879,145.606384 69.393921C142.793427 66.580963,138.978424 65.000305,135.000000 65.000305C131.021576 65.000305,127.206573 66.580963,124.393616 69.393921C121.580658 72.206879,120.000000 76.021881,120.000000 80.000305C120.000000 83.978729,121.580658 87.793732,124.393616 90.606689C127.206573 93.419647,131.021576 95.000305,135.000000 95.000305C138.978424 95.000305,142.793427 93.419647,145.606384 90.606689C148.419342 87.793732,150.000000 83.978729,150.000000 80.000305Z" style="fill: rgb(0.000000%,0.000000%,0.000000%);stroke: none;"></path>
  <path d="M80.000000 80.000305C80.000000 76.021881,78.419342 72.206879,75.606384 69.393921C72.793427 66.580963,68.978424 65.000305,65.000000 65.000305C61.021576 65.000305,57.206573 66.580963,54.393616 69.393921C51.580658 72.206879,50.000000 76.021881,50.000000 80.000305C50.000000 83.978729,51.580658 87.793732,54.393616 90.606689C57.206573 93.419647,61.021576 95.000305,65.000000 95.000305C68.978424 95.000305,72.793427 93.419647,75.606384 90.606689C78.419342 87.793732,80.000000 83.978729,80.000000 80.000305Z" style="stroke:rgb(0.000000%,0.000000%,0.000000%); stroke-width: 0.500000;stroke-linecap: round;stroke-linejoin: round;stroke-miterlimit: 10.000000;fill: none;"></path>
  <path d="M150.000000 80.000305C150.000000 76.021881,148.419342 72.206879,145.606384 69.393921C142.793427 66.580963,138.978424 65.000305,135.000000 65.000305C131.021576 65.000305,127.206573 66.580963,124.393616 69.393921C121.580658 72.206879,120.000000 76.021881,120.000000 80.000305C120.000000 83.978729,121.580658 87.793732,124.393616 90.606689C127.206573 93.419647,131.021576 95.000305,135.000000 95.000305C138.978424 95.000305,142.793427 93.419647,145.606384 90.606689C148.419342 87.793732,150.000000 83.978729,150.000000 80.000305Z" style="stroke:rgb(0.000000%,0.000000%,0.000000%); stroke-width: 0.500000;stroke-linecap: round;stroke-linejoin: round;stroke-miterlimit: 10.000000;fill: none;"></path>
  <path d="M42.500000 119.999695C52.171997 143.212494,74.852798 158.333023,100.000000 158.333023C125.147202 158.333023,147.828003 143.212494,157.500000 119.999695" style="stroke:rgb(0.000000%,0.000000%,0.000000%); stroke-width: 16.000000;stroke-linecap: round;stroke-linejoin: round;stroke-miterlimit: 10.000000;fill: none;"></path>
</svg>
