<?xml version="1.0"?>
<!-- Created by MetaPost 1.803 on 2016.08.21:0333 -->
<svg version="1.1" xmlns="http://www.w3.org/2000/svg" xmlns:xlink="http://www.w3.org/1999/xlink" width="200.500000" height="200.500000" viewBox="0 0 200.500000 200.500000">
<!-- Original BoundingBox: -100.250000 -100.250000 100.250000 100.250000 -->
  <path d="M200.000000 100.000000C200.000000 73.477173,189.462280 48.043823,170.709229 29.290771C151.956177 10.537720,126.522827 -0.000000,100.000000 -0.000000C73.477173 -0.000000,48.043823 10.537720,29.290771 29.290771C10.537720 48.043823,0.000000 73.477173,0.000000 100.000000C0.000000 126.522827,10.537720 151.956177,29.290771 170.709229C48.043823 189.462280,73.477173 200.000000,100.000000 200.000000C126.522827 200.000000,151.956177 189.462280,170.709229 170.709229C189.462280 151.956177,200.000000 126.522827,200.000000 100.000000Z" style="fill: rgb(100.000000%,82.353210%,15.686035%);stroke: none;"></path>
  <path d="M200.000000 100.000000C200.000000 73.477173,189.462280 48.043823,170.709229 29.290771C151.956177 10.537720,126.522827 -0.000000,100.000000 -0.000000C73.477173 -0.000000,48.043823 10.537720,29.290771 29.290771C10.537720 48.043823,0.000000 73.477173,0.000000 100.000000C0.000000 126.522827,10.537720 151.956177,29.290771 170.709229C48.043823 189.462280,73.477173 200.000000,100.000000 200.000000C126.522827 200.000000,151.956177 189.462280,170.709229 170.709229C189.462280 151.956177,200.000000 126.522827,200.000000 100.000000Z" style="stroke:rgb(0.000000%,0.000000%,0.000000%); stroke-width: 0.500000;stroke-linecap: round;stroke-linejoin: round;stroke-miterlimit: 10.000000;fill: none;"></path>
  <path d="M25.572174 80.000305C29.928421 71.289001,38.832367 65.786392,48.572174 65.786392C58.311981 65.786392,67.215927 71.289001,71.572174 80.000305" style="stroke:rgb(0.000000%,0.000000%,0.000000%); stroke-width: 8.000000;stroke-linecap: round;stroke-linejoin: round;stroke-miterlimit: 10.000000;fill: none;"></path>
  <path d="M128.427826 80.000305C132.784073 71.289001,141.688019 65.786392,151.427826 65.786392C161.167633 65.786392,170.071579 71.289001,174.427826 80.000305" style="stroke:rgb(0.000000%,0.000000%,0.000000%); stroke-width: 8.000000;stroke-linecap: round;stroke-linejoin: round;stroke-miterlimit: 10.000000;fill: none;"></path>
  <path d="M62.786087 130.000305C69.834488 144.095154,84.241043 152.998367,100.000000 152.998367C115.758957 152.998367,130.165512 144.095154,137.213913 130.000305" style="stroke:rgb(0.000000%,0.000000%,0.000000%); stroke-width: 10.000000;stroke-linecap: round;stroke-linejoin: round;stroke-miterlimit: 10.000000;fill: none;"></path>
</svg>
