<?xml version="1.0"?>
<!-- Created by MetaPost 1.803 on 2016.08.17:0247 -->
<svg version="1.1" xmlns="http://www.w3.org/2000/svg" xmlns:xlink="http://www.w3.org/1999/xlink" width="108.500000" height="115.499695" viewBox="0 0 108.500000 115.499695">
<!-- Original BoundingBox: -54.250000 -60.250000 54.250000 55.249695 -->
  <path d="M0.000000 59.000000C0.000000 56.790863,1.790863 55.000000,4.000000 55.000000L104.000000 55.000000C106.209137 55.000000,108.000000 56.790863,108.000000 59.000000L108.000000 111.000000C108.000000 113.209137,106.209137 115.000000,104.000000 115.000000L4.000000 115.000000C1.790863 115.000000,0.000000 113.209137,0.000000 111.000000Z" style="fill: rgb(100.000000%,82.353210%,58.824158%);stroke: none;"></path>
  <path d="M0.000000 59.000000C0.000000 56.790863,1.790863 55.000000,4.000000 55.000000L104.000000 55.000000C106.209137 55.000000,108.000000 56.790863,108.000000 59.000000L108.000000 111.000000C108.000000 113.209137,106.209137 115.000000,104.000000 115.000000L4.000000 115.000000C1.790863 115.000000,0.000000 113.209137,0.000000 111.000000Z" style="stroke:rgb(0.000000%,0.000000%,0.000000%); stroke-width: 0.500000;stroke-linecap: round;stroke-linejoin: round;stroke-miterlimit: 10.000000;fill: none;"></path>
  <path d="M9.000305 55.000000L29.000000 55.000000L29.000000 45.000000C29.000000 31.192871,40.192871 20.000000,54.000000 20.000000C67.807129 20.000000,79.000000 31.192871,79.000000 45.000000L79.000000 55.000000L98.999695 55.000000L98.999695 45.000000C98.999695 20.147354,78.852646 0.000305,54.000000 0.000305C29.147354 0.000305,9.000305 20.147354,9.000305 45.000000Z" style="fill: rgb(89.999390%,89.999390%,89.999390%);stroke: none;"></path>
  <path d="M9.000305 55.000000L29.000000 55.000000L29.000000 45.000000C29.000000 31.192871,40.192871 20.000000,54.000000 20.000000C67.807129 20.000000,79.000000 31.192871,79.000000 45.000000L79.000000 55.000000L98.999695 55.000000L98.999695 45.000000C98.999695 20.147354,78.852646 0.000305,54.000000 0.000305C29.147354 0.000305,9.000305 20.147354,9.000305 45.000000Z" style="stroke:rgb(0.000000%,0.000000%,0.000000%); stroke-width: 0.500000;stroke-linecap: round;stroke-linejoin: round;stroke-miterlimit: 10.000000;fill: none;"></path>
</svg>
