<?xml version="1.0"?>
<!-- Created by MetaPost 1.803 on 2016.08.20:0144 -->
<svg version="1.1" xmlns="http://www.w3.org/2000/svg" xmlns:xlink="http://www.w3.org/1999/xlink" width="200.500000" height="212.883591" viewBox="0 0 200.500000 212.883591">
<!-- Original BoundingBox: -100.250000 -100.250000 100.250000 112.633591 -->
  <path d="M200.000000 112.000000C200.000000 85.477173,189.462280 60.043823,170.709229 41.290771C151.956177 22.537720,126.522827 12.000000,100.000000 12.000000C73.477173 12.000000,48.043823 22.537720,29.290771 41.290771C10.537720 60.043823,0.000000 85.477173,0.000000 112.000000C0.000000 138.522827,10.537720 163.956177,29.290771 182.709229C48.043823 201.462280,73.477173 212.000000,100.000000 212.000000C126.522827 212.000000,151.956177 201.462280,170.709229 182.709229C189.462280 163.956177,200.000000 138.522827,200.000000 112.000000Z" style="fill: rgb(100.000000%,82.353210%,15.686035%);stroke: none;"></path>
  <path d="M90.000610 86.999390C80.135315 89.494492,70.187164 91.999390,60.000610 91.999390C49.814056 91.999390,39.865906 89.494492,30.000610 86.999390C38.878510 94.408676,48.438431 101.999390,60.000610 101.999390C71.562790 101.999390,81.122711 94.408691,90.000610 86.999390Z" style="fill: rgb(66.667175%,39.215088%,7.843018%);stroke: none;"></path>
  <path d="M169.999390 86.999390C160.134094 89.494492,150.185944 91.999390,139.999390 91.999390C129.812836 91.999390,119.864685 89.494492,109.999390 86.999390C118.877289 94.408676,128.437210 101.999390,139.999390 101.999390C151.561569 101.999390,161.121490 94.408691,169.999390 86.999390Z" style="fill: rgb(66.667175%,39.215088%,7.843018%);stroke: none;"></path>
  <path d="M200.000000 112.000000C200.000000 85.477173,189.462280 60.043823,170.709229 41.290771C151.956177 22.537720,126.522827 12.000000,100.000000 12.000000C73.477173 12.000000,48.043823 22.537720,29.290771 41.290771C10.537720 60.043823,0.000000 85.477173,0.000000 112.000000C0.000000 138.522827,10.537720 163.956177,29.290771 182.709229C48.043823 201.462280,73.477173 212.000000,100.000000 212.000000C126.522827 212.000000,151.956177 201.462280,170.709229 182.709229C189.462280 163.956177,200.000000 138.522827,200.000000 112.000000Z" style="stroke:rgb(0.000000%,0.000000%,0.000000%); stroke-width: 0.500000;stroke-linecap: round;stroke-linejoin: round;stroke-miterlimit: 10.000000;fill: none;"></path>
  <path d="M90.000610 86.999390C80.135315 89.494492,70.187164 91.999390,60.000610 91.999390C49.814056 91.999390,39.865906 89.494492,30.000610 86.999390C38.878510 94.408676,48.438431 101.999390,60.000610 101.999390C71.562790 101.999390,81.122711 94.408691,90.000610 86.999390Z" style="stroke:rgb(0.000000%,0.000000%,0.000000%); stroke-width: 0.500000;stroke-linecap: round;stroke-linejoin: round;stroke-miterlimit: 10.000000;fill: none;"></path>
  <path d="M169.999390 86.999390C160.134094 89.494492,150.185944 91.999390,139.999390 91.999390C129.812836 91.999390,119.864685 89.494492,109.999390 86.999390C118.877289 94.408676,128.437210 101.999390,139.999390 101.999390C151.561569 101.999390,161.121490 94.408691,169.999390 86.999390Z" style="stroke:rgb(0.000000%,0.000000%,0.000000%); stroke-width: 0.500000;stroke-linecap: round;stroke-linejoin: round;stroke-miterlimit: 10.000000;fill: none;"></path>
  <path d="M120.000000 152.000000C120.000000 146.695435,117.892456 141.608765,114.141846 137.858154C110.391235 134.107544,105.304565 132.000000,100.000000 132.000000C94.695435 132.000000,89.608765 134.107544,85.858154 137.858154C82.107544 141.608765,80.000000 146.695435,80.000000 152.000000C80.000000 157.304565,82.107544 162.391235,85.858154 166.141846C89.608765 169.892456,94.695435 172.000000,100.000000 172.000000C105.304565 172.000000,110.391235 169.892456,114.141846 166.141846C117.892456 162.391235,120.000000 157.304565,120.000000 152.000000Z" style="fill: rgb(66.667175%,39.215088%,7.843018%);stroke: none;"></path>
  <path d="M120.000000 152.000000C120.000000 146.695435,117.892456 141.608765,114.141846 137.858154C110.391235 134.107544,105.304565 132.000000,100.000000 132.000000C94.695435 132.000000,89.608765 134.107544,85.858154 137.858154C82.107544 141.608765,80.000000 146.695435,80.000000 152.000000C80.000000 157.304565,82.107544 162.391235,85.858154 166.141846C89.608765 169.892456,94.695435 172.000000,100.000000 172.000000C105.304565 172.000000,110.391235 169.892456,114.141846 166.141846C117.892456 162.391235,120.000000 157.304565,120.000000 152.000000Z" style="stroke:rgb(0.000000%,0.000000%,0.000000%); stroke-width: 0.500000;stroke-linecap: round;stroke-linejoin: round;stroke-miterlimit: 10.000000;fill: none;"></path>
  <g transform="matrix(3.000000,-0.000000,-0.000000,3.000000,90.869232 42.580032)" style="fill: rgb(0.000000%,0.000000%,100.000000%);">
    <text font-size="9.962646">Z</text>
  </g>
  <g transform="matrix(5.000000,-0.000000,-0.000000,5.000000,109.782059 34.634201)" style="fill: rgb(0.000000%,0.000000%,100.000000%);">
    <text font-size="9.962646">Z</text>
  </g>
  <g transform="matrix(9.000000,-0.000000,-0.000000,9.000000,137.607101 73.741318)" style="fill: rgb(0.000000%,0.000000%,100.000000%);">
    <text font-size="9.962646">Z</text>
  </g>
</svg>
