<?xml version="1.0"?>
<!-- Created by MetaPost 1.803 on 2016.08.17:0404 -->
<svg version="1.1" xmlns="http://www.w3.org/2000/svg" xmlns:xlink="http://www.w3.org/1999/xlink" width="184.000000" height="324.000000" viewBox="0 0 184.000000 324.000000">
<!-- Original BoundingBox: -2.000000 -162.000000 182.000000 162.000000 -->
  <path d="M2.000000 2.000000L182.000000 2.000000L182.000000 322.000000L2.000000 322.000000Z" style="fill: rgb(78.431702%,62.745667%,35.293579%);stroke: none;"></path>
  <path d="M2.000000 2.000000L182.000000 2.000000L182.000000 322.000000L2.000000 322.000000Z" style="stroke:rgb(0.000000%,0.000000%,0.000000%); stroke-width: 4.000000;stroke-linecap: round;stroke-linejoin: round;stroke-miterlimit: 10.000000;fill: none;"></path>
  <path d="M24.500000 22.000000L159.500000 22.000000L159.500000 142.000000L24.500000 142.000000Z" style="stroke:rgb(47.058105%,31.372070%,15.686035%); stroke-width: 2.000000;stroke-linecap: round;stroke-linejoin: round;stroke-miterlimit: 10.000000;fill: none;"></path>
  <path d="M24.500000 182.000000L159.500000 182.000000L159.500000 302.000000L24.500000 302.000000Z" style="stroke:rgb(47.058105%,31.372070%,15.686035%); stroke-width: 2.000000;stroke-linecap: round;stroke-linejoin: round;stroke-miterlimit: 10.000000;fill: none;"></path>
  <path d="M27.000000 162.000000C27.000000 159.347717,25.946228 156.804382,24.070923 154.929077C22.195618 153.053772,19.652283 152.000000,17.000000 152.000000C14.347717 152.000000,11.804382 153.053772,9.929077 154.929077C8.053772 156.804382,7.000000 159.347717,7.000000 162.000000C7.000000 164.652283,8.053772 167.195618,9.929077 169.070923C11.804382 170.946228,14.347717 172.000000,17.000000 172.000000C19.652283 172.000000,22.195618 170.946228,24.070923 169.070923C25.946228 167.195618,27.000000 164.652283,27.000000 162.000000Z" style="fill: rgb(100.000000%,86.274719%,43.136597%);stroke: none;"></path>
  <path d="M27.000000 162.000000C27.000000 159.347717,25.946228 156.804382,24.070923 154.929077C22.195618 153.053772,19.652283 152.000000,17.000000 152.000000C14.347717 152.000000,11.804382 153.053772,9.929077 154.929077C8.053772 156.804382,7.000000 159.347717,7.000000 162.000000C7.000000 164.652283,8.053772 167.195618,9.929077 169.070923C11.804382 170.946228,14.347717 172.000000,17.000000 172.000000C19.652283 172.000000,22.195618 170.946228,24.070923 169.070923C25.946228 167.195618,27.000000 164.652283,27.000000 162.000000Z" style="stroke:rgb(0.000000%,0.000000%,0.000000%); stroke-width: 1.500000;stroke-linecap: round;stroke-linejoin: round;stroke-miterlimit: 10.000000;fill: none;"></path>
</svg>
