<?xml version="1.0"?>
<!-- Created by MetaPost 1.803 on 2016.08.17:0428 -->
<svg version="1.1" xmlns="http://www.w3.org/2000/svg" xmlns:xlink="http://www.w3.org/1999/xlink" width="184.000000" height="324.000000" viewBox="0 0 184.000000 324.000000">
<!-- Original BoundingBox: -2.000000 -162.000000 182.000000 162.000000 -->
  <path d="M2.000000 2.000000L182.000000 2.000000L182.000000 322.000000L2.000000 322.000000Z" style="fill: rgb(78.431702%,62.745667%,35.293579%);stroke: none;"></path>
  <path d="M2.000000 2.000000L182.000000 2.000000L182.000000 322.000000L2.000000 322.000000Z" style="stroke:rgb(0.000000%,0.000000%,0.000000%); stroke-width: 4.000000;stroke-linecap: round;stroke-linejoin: round;stroke-miterlimit: 10.000000;fill: none;"></path>
  <path d="M29.000275 26.000244L154.999725 26.000244L154.999725 137.999756L29.000275 137.999756Z" style="fill: rgb(0.000000%,39.215088%,62.745667%);stroke: none;"></path>
  <path d="M29.000275 26.000244L154.999725 26.000244L154.999725 137.999756L29.000275 137.999756Z" style="stroke:rgb(0.000000%,0.000000%,0.000000%); stroke-width: 2.000000;stroke-linecap: round;stroke-linejoin: round;stroke-miterlimit: 10.000000;fill: none;"></path>
  <path d="M52.199783 46.399811L152.999725 46.399811L152.999725 135.999756L52.199783 135.999756Z" style="fill: rgb(23.529053%,74.510193%,90.196228%);stroke: none;"></path>
  <path d="M52.199783 46.399811L152.999725 46.399811L152.999725 135.999756L52.199783 135.999756Z" style="stroke:rgb(23.529053%,74.510193%,90.196228%); stroke-width: 2.000000;stroke-linecap: round;stroke-linejoin: round;stroke-miterlimit: 10.000000;fill: none;"></path>
  <path d="M44.000000 182.000000C44.000000 178.817261,42.735474 175.765259,40.485107 173.514893C38.234741 171.264526,35.182739 170.000000,32.000000 170.000000C28.817261 170.000000,25.765259 171.264526,23.514893 173.514893C21.264526 175.765259,20.000000 178.817261,20.000000 182.000000C20.000000 185.182739,21.264526 188.234741,23.514893 190.485107C25.765259 192.735474,28.817261 194.000000,32.000000 194.000000C35.182739 194.000000,38.234741 192.735474,40.485107 190.485107C42.735474 188.234741,44.000000 185.182739,44.000000 182.000000Z" style="fill: rgb(100.000000%,86.274719%,43.136597%);stroke: none;"></path>
  <path d="M44.000000 182.000000C44.000000 178.817261,42.735474 175.765259,40.485107 173.514893C38.234741 171.264526,35.182739 170.000000,32.000000 170.000000C28.817261 170.000000,25.765259 171.264526,23.514893 173.514893C21.264526 175.765259,20.000000 178.817261,20.000000 182.000000C20.000000 185.182739,21.264526 188.234741,23.514893 190.485107C25.765259 192.735474,28.817261 194.000000,32.000000 194.000000C35.182739 194.000000,38.234741 192.735474,40.485107 190.485107C42.735474 188.234741,44.000000 185.182739,44.000000 182.000000Z" style="stroke:rgb(0.000000%,0.000000%,0.000000%); stroke-width: 1.500000;stroke-linecap: round;stroke-linejoin: round;stroke-miterlimit: 10.000000;fill: none;"></path>
</svg>
