<?xml version="1.0"?>
<!-- Created by MetaPost 1.803 on 2016.08.21:0403 -->
<svg version="1.1" xmlns="http://www.w3.org/2000/svg" xmlns:xlink="http://www.w3.org/1999/xlink" width="200.500000" height="200.500000" viewBox="0 0 200.500000 200.500000">
<!-- Original BoundingBox: -100.250000 -100.250000 100.250000 100.250000 -->
  <path d="M200.000000 100.000000C200.000000 73.477173,189.462280 48.043823,170.709229 29.290771C151.956177 10.537720,126.522827 -0.000000,100.000000 -0.000000C73.477173 -0.000000,48.043823 10.537720,29.290771 29.290771C10.537720 48.043823,0.000000 73.477173,0.000000 100.000000C0.000000 126.522827,10.537720 151.956177,29.290771 170.709229C48.043823 189.462280,73.477173 200.000000,100.000000 200.000000C126.522827 200.000000,151.956177 189.462280,170.709229 170.709229C189.462280 151.956177,200.000000 126.522827,200.000000 100.000000Z" style="fill: rgb(0.000000%,0.000000%,0.000000%);stroke: none;"></path>
  <path d="M200.000000 100.000000C200.000000 73.477173,189.462280 48.043823,170.709229 29.290771C151.956177 10.537720,126.522827 -0.000000,100.000000 -0.000000C73.477173 -0.000000,48.043823 10.537720,29.290771 29.290771C10.537720 48.043823,0.000000 73.477173,0.000000 100.000000C0.000000 126.522827,10.537720 151.956177,29.290771 170.709229C48.043823 189.462280,73.477173 200.000000,100.000000 200.000000C126.522827 200.000000,151.956177 189.462280,170.709229 170.709229C189.462280 151.956177,200.000000 126.522827,200.000000 100.000000Z" style="stroke:rgb(0.000000%,0.000000%,0.000000%); stroke-width: 0.500000;stroke-linecap: round;stroke-linejoin: round;stroke-miterlimit: 10.000000;fill: none;"></path>
  <path d="M150.000000 100.000000C150.000000 86.738586,144.731140 74.021912,135.354614 64.645386C125.978088 55.268860,113.261414 50.000000,100.000000 50.000000C86.738586 50.000000,74.021912 55.268860,64.645386 64.645386C55.268860 74.021912,50.000000 86.738586,50.000000 100.000000C50.000000 113.261414,55.268860 125.978088,64.645386 135.354614C74.021912 144.731140,86.738586 150.000000,100.000000 150.000000C113.261414 150.000000,125.978088 144.731140,135.354614 135.354614C144.731140 125.978088,150.000000 113.261414,150.000000 100.000000Z" style="fill: rgb(100.000000%,100.000000%,100.000000%);stroke: none;"></path>
  <path d="M150.000000 100.000000C150.000000 86.738586,144.731140 74.021912,135.354614 64.645386C125.978088 55.268860,113.261414 50.000000,100.000000 50.000000C86.738586 50.000000,74.021912 55.268860,64.645386 64.645386C55.268860 74.021912,50.000000 86.738586,50.000000 100.000000C50.000000 113.261414,55.268860 125.978088,64.645386 135.354614C74.021912 144.731140,86.738586 150.000000,100.000000 150.000000C113.261414 150.000000,125.978088 144.731140,135.354614 135.354614C144.731140 125.978088,150.000000 113.261414,150.000000 100.000000Z" style="stroke:rgb(0.000000%,0.000000%,0.000000%); stroke-width: 0.500000;stroke-linecap: round;stroke-linejoin: round;stroke-miterlimit: 10.000000;fill: none;"></path>
  <g transform="matrix(10.000000,-0.000000,-0.000000,10.000000,75.093384 132.826843)" style="fill: rgb(0.000000%,0.000000%,0.000000%);">
    <text font-size="9.962646">8</text>
  </g>
</svg>
