<?xml version="1.0"?>
<!-- Created by MetaPost 1.803 on 2016.08.21:1707 -->
<svg version="1.1" xmlns="http://www.w3.org/2000/svg" xmlns:xlink="http://www.w3.org/1999/xlink" width="205.000000" height="178.205566" viewBox="0 0 205.000000 178.205566">
<!-- Original BoundingBox: -102.500000 -89.102783 102.500000 89.102783 -->
  <path d="M102.000000 89.000000L202.000000 89.000000" style="stroke:rgb(60.000610%,60.000610%,60.000610%); stroke-width: 5.000000;stroke-linecap: round;stroke-linejoin: round;stroke-miterlimit: 10.000000;fill: none;"></path>
  <path d="M132.000000 89.000000C128.415634 85.421112,125.317337 81.386536,122.784744 76.999954C120.252136 72.613342,118.307220 67.912796,117.000000 63.019165" style="stroke:rgb(60.000610%,60.000610%,60.000610%); stroke-width: 5.000000;stroke-linecap: round;stroke-linejoin: round;stroke-miterlimit: 10.000000;fill: none;"></path>
  <path d="M162.000000 89.000000C154.831268 81.842239,148.634674 73.773056,143.569489 64.999908C138.504272 56.226685,134.614441 46.825607,132.000000 37.038330" style="stroke:rgb(60.000610%,60.000610%,60.000610%); stroke-width: 5.000000;stroke-linecap: round;stroke-linejoin: round;stroke-miterlimit: 10.000000;fill: none;"></path>
  <path d="M192.000000 89.000000C181.246918 78.263351,171.952011 66.159592,164.354248 52.999863C156.756409 39.840027,150.921661 25.738403,147.000000 11.057495" style="stroke:rgb(60.000610%,60.000610%,60.000610%); stroke-width: 5.000000;stroke-linecap: round;stroke-linejoin: round;stroke-miterlimit: 10.000000;fill: none;"></path>
  <path d="M102.000000 89.000000L152.000000 2.397217" style="stroke:rgb(60.000610%,60.000610%,60.000610%); stroke-width: 5.000000;stroke-linecap: round;stroke-linejoin: round;stroke-miterlimit: 10.000000;fill: none;"></path>
  <path d="M117.000000 63.019165C112.108414 64.333878,107.065201 64.999802,102.000000 64.999802C96.934769 64.999817,91.891510 64.333878,86.999878 63.019165" style="stroke:rgb(60.000610%,60.000610%,60.000610%); stroke-width: 5.000000;stroke-linecap: round;stroke-linejoin: round;stroke-miterlimit: 10.000000;fill: none;"></path>
  <path d="M132.000000 37.038330C122.216812 39.667770,112.130386 40.999588,102.000000 40.999619C91.869537 40.999634,81.783020 39.667786,71.999741 37.038330" style="stroke:rgb(60.000610%,60.000610%,60.000610%); stroke-width: 5.000000;stroke-linecap: round;stroke-linejoin: round;stroke-miterlimit: 10.000000;fill: none;"></path>
  <path d="M147.000000 11.057495C132.325226 15.001633,117.195587 16.999405,102.000000 16.999405C86.804306 16.999435,71.674530 15.001678,56.999619 11.057495" style="stroke:rgb(60.000610%,60.000610%,60.000610%); stroke-width: 5.000000;stroke-linecap: round;stroke-linejoin: round;stroke-miterlimit: 10.000000;fill: none;"></path>
  <path d="M102.000000 89.000000L52.000000 2.397217" style="stroke:rgb(60.000610%,60.000610%,60.000610%); stroke-width: 5.000000;stroke-linecap: round;stroke-linejoin: round;stroke-miterlimit: 10.000000;fill: none;"></path>
  <path d="M87.000000 63.019165C85.692764 67.912766,83.747849 72.613266,81.215240 76.999863C78.682632 81.386475,75.584290 85.421097,71.999878 89.000000" style="stroke:rgb(60.000610%,60.000610%,60.000610%); stroke-width: 5.000000;stroke-linecap: round;stroke-linejoin: round;stroke-miterlimit: 10.000000;fill: none;"></path>
  <path d="M72.000000 37.038330C69.385544 46.825546,65.495712 56.226547,60.430511 64.999710C55.365265 73.772949,49.168579 81.842194,41.999741 89.000000" style="stroke:rgb(60.000610%,60.000610%,60.000610%); stroke-width: 5.000000;stroke-linecap: round;stroke-linejoin: round;stroke-miterlimit: 10.000000;fill: none;"></path>
  <path d="M57.000000 11.057495C53.078308 25.738297,47.243561 39.839828,39.645752 52.999557C32.047897 66.159409,22.752869 78.263275,11.999619 89.000000" style="stroke:rgb(60.000610%,60.000610%,60.000610%); stroke-width: 5.000000;stroke-linecap: round;stroke-linejoin: round;stroke-miterlimit: 10.000000;fill: none;"></path>
  <path d="M102.000000 89.000000L2.000000 89.000000" style="stroke:rgb(60.000610%,60.000610%,60.000610%); stroke-width: 5.000000;stroke-linecap: round;stroke-linejoin: round;stroke-miterlimit: 10.000000;fill: none;"></path>
  <path d="M72.000000 89.000000C75.584366 92.578888,78.682663 96.613464,81.215256 101.000046C83.747864 105.386658,85.692780 110.087204,87.000000 114.980835" style="stroke:rgb(60.000610%,60.000610%,60.000610%); stroke-width: 5.000000;stroke-linecap: round;stroke-linejoin: round;stroke-miterlimit: 10.000000;fill: none;"></path>
  <path d="M42.000000 89.000000C49.168732 96.157761,55.365326 104.226944,60.430511 113.000092C65.495728 121.773315,69.385559 131.174393,72.000000 140.961670" style="stroke:rgb(60.000610%,60.000610%,60.000610%); stroke-width: 5.000000;stroke-linecap: round;stroke-linejoin: round;stroke-miterlimit: 10.000000;fill: none;"></path>
  <path d="M12.000000 89.000000C22.753082 99.736649,32.047989 111.840408,39.645752 125.000137C47.243591 138.159973,53.078339 152.261597,57.000000 166.942505" style="stroke:rgb(60.000610%,60.000610%,60.000610%); stroke-width: 5.000000;stroke-linecap: round;stroke-linejoin: round;stroke-miterlimit: 10.000000;fill: none;"></path>
  <path d="M102.000000 89.000000L52.000000 175.602783" style="stroke:rgb(60.000610%,60.000610%,60.000610%); stroke-width: 5.000000;stroke-linecap: round;stroke-linejoin: round;stroke-miterlimit: 10.000000;fill: none;"></path>
  <path d="M87.000000 114.980835C91.891586 113.666122,96.934799 113.000198,102.000000 113.000198C107.065231 113.000183,112.108490 113.666122,117.000122 114.980835" style="stroke:rgb(60.000610%,60.000610%,60.000610%); stroke-width: 5.000000;stroke-linecap: round;stroke-linejoin: round;stroke-miterlimit: 10.000000;fill: none;"></path>
  <path d="M72.000000 140.961670C81.783188 138.332230,91.869614 137.000412,102.000000 137.000381C112.130463 137.000366,122.216980 138.332214,132.000259 140.961670" style="stroke:rgb(60.000610%,60.000610%,60.000610%); stroke-width: 5.000000;stroke-linecap: round;stroke-linejoin: round;stroke-miterlimit: 10.000000;fill: none;"></path>
  <path d="M57.000000 166.942505C71.674774 162.998367,86.804413 161.000595,102.000000 161.000595C117.195694 161.000565,132.325470 162.998322,147.000381 166.942505" style="stroke:rgb(60.000610%,60.000610%,60.000610%); stroke-width: 5.000000;stroke-linecap: round;stroke-linejoin: round;stroke-miterlimit: 10.000000;fill: none;"></path>
  <path d="M102.000000 89.000000L152.000000 175.602783" style="stroke:rgb(60.000610%,60.000610%,60.000610%); stroke-width: 5.000000;stroke-linecap: round;stroke-linejoin: round;stroke-miterlimit: 10.000000;fill: none;"></path>
  <path d="M117.000000 114.980835C118.307236 110.087234,120.252151 105.386734,122.784760 101.000137C125.317368 96.613525,128.415710 92.578903,132.000122 89.000000" style="stroke:rgb(60.000610%,60.000610%,60.000610%); stroke-width: 5.000000;stroke-linecap: round;stroke-linejoin: round;stroke-miterlimit: 10.000000;fill: none;"></path>
  <path d="M132.000000 140.961670C134.614456 131.174454,138.504288 121.773453,143.569489 113.000290C148.634735 104.227051,154.831421 96.157806,162.000259 89.000000" style="stroke:rgb(60.000610%,60.000610%,60.000610%); stroke-width: 5.000000;stroke-linecap: round;stroke-linejoin: round;stroke-miterlimit: 10.000000;fill: none;"></path>
  <path d="M147.000000 166.942505C150.921692 152.261703,156.756439 138.160172,164.354248 125.000443C171.952103 111.840591,181.247131 99.736725,192.000381 89.000000" style="stroke:rgb(60.000610%,60.000610%,60.000610%); stroke-width: 5.000000;stroke-linecap: round;stroke-linejoin: round;stroke-miterlimit: 10.000000;fill: none;"></path>
</svg>
