<?xml version="1.0"?>
<!-- Created by MetaPost 1.803 on 2016.08.21:1708 -->
<svg version="1.1" xmlns="http://www.w3.org/2000/svg" xmlns:xlink="http://www.w3.org/1999/xlink" width="203.000427" height="203.000427" viewBox="0 0 203.000427 203.000427">
<!-- Original BoundingBox: -101.500214 -101.500214 101.500214 101.500214 -->
  <path d="M111.000000 101.000000C110.367218 99.888092,109.804382 98.737793,109.314804 97.555817C108.825241 96.373886,108.409851 95.162567,108.071075 93.928925" style="stroke:rgb(50.000000%,50.000000%,50.000000%); stroke-width: 3.000000;stroke-linecap: round;stroke-linejoin: round;stroke-miterlimit: 10.000000;fill: none;"></path>
  <path d="M111.000000 101.000000L201.000000 101.000000" style="stroke:rgb(50.000000%,50.000000%,50.000000%); stroke-width: 3.000000;stroke-linecap: round;stroke-linejoin: round;stroke-miterlimit: 10.000000;fill: none;"></path>
  <path d="M141.000000 101.000000C138.468872 96.552338,136.217575 91.951157,134.259232 87.223236C132.300964 82.495499,130.639435 77.650253,129.284302 72.715698" style="stroke:rgb(50.000000%,50.000000%,50.000000%); stroke-width: 3.000000;stroke-linecap: round;stroke-linejoin: round;stroke-miterlimit: 10.000000;fill: none;"></path>
  <path d="M171.000000 101.000000C166.570526 93.216599,162.630768 85.164520,159.203659 76.890671C155.776688 68.617142,152.869003 60.137955,150.497528 51.502472" style="stroke:rgb(50.000000%,50.000000%,50.000000%); stroke-width: 3.000000;stroke-linecap: round;stroke-linejoin: round;stroke-miterlimit: 10.000000;fill: none;"></path>
  <path d="M201.000000 101.000000C194.672180 89.880844,189.043945 78.377884,184.148087 66.558090C179.252411 54.738770,175.098572 42.625641,171.710754 30.289246" style="stroke:rgb(50.000000%,50.000000%,50.000000%); stroke-width: 3.000000;stroke-linecap: round;stroke-linejoin: round;stroke-miterlimit: 10.000000;fill: none;"></path>
  <path d="M108.071075 93.928925C106.837387 93.590134,105.626022 93.174728,104.444046 92.685135C103.262115 92.195557,102.111877 91.632751,101.000000 90.999969" style="stroke:rgb(50.000000%,50.000000%,50.000000%); stroke-width: 3.000000;stroke-linecap: round;stroke-linejoin: round;stroke-miterlimit: 10.000000;fill: none;"></path>
  <path d="M108.071075 93.928925L171.710754 30.289246" style="stroke:rgb(50.000000%,50.000000%,50.000000%); stroke-width: 3.000000;stroke-linecap: round;stroke-linejoin: round;stroke-miterlimit: 10.000000;fill: none;"></path>
  <path d="M129.284302 72.715698C124.349548 71.360504,119.504120 69.698883,114.776199 67.740494C110.048477 65.782181,105.447479 63.530945,101.000000 60.999908" style="stroke:rgb(50.000000%,50.000000%,50.000000%); stroke-width: 3.000000;stroke-linecap: round;stroke-linejoin: round;stroke-miterlimit: 10.000000;fill: none;"></path>
  <path d="M150.497528 51.502472C141.861710 49.130875,133.382187 46.223038,125.108368 42.795868C116.834839 39.368835,108.783096 35.429184,101.000000 30.999847" style="stroke:rgb(50.000000%,50.000000%,50.000000%); stroke-width: 3.000000;stroke-linecap: round;stroke-linejoin: round;stroke-miterlimit: 10.000000;fill: none;"></path>
  <path d="M171.710754 30.289246C159.373871 26.901245,147.260269 22.747208,135.440491 17.851227C123.621201 12.955460,112.118713 7.327393,101.000000 0.999786" style="stroke:rgb(50.000000%,50.000000%,50.000000%); stroke-width: 3.000000;stroke-linecap: round;stroke-linejoin: round;stroke-miterlimit: 10.000000;fill: none;"></path>
  <path d="M101.000000 91.000000C99.888092 91.632782,98.737793 92.195618,97.555817 92.685196C96.373886 93.174759,95.162567 93.590149,93.928925 93.928925" style="stroke:rgb(50.000000%,50.000000%,50.000000%); stroke-width: 3.000000;stroke-linecap: round;stroke-linejoin: round;stroke-miterlimit: 10.000000;fill: none;"></path>
  <path d="M101.000000 91.000000L101.000000 1.000000" style="stroke:rgb(50.000000%,50.000000%,50.000000%); stroke-width: 3.000000;stroke-linecap: round;stroke-linejoin: round;stroke-miterlimit: 10.000000;fill: none;"></path>
  <path d="M101.000000 61.000000C96.552338 63.531128,91.951157 65.782425,87.223236 67.740768C82.495499 69.699036,77.650253 71.360565,72.715698 72.715698" style="stroke:rgb(50.000000%,50.000000%,50.000000%); stroke-width: 3.000000;stroke-linecap: round;stroke-linejoin: round;stroke-miterlimit: 10.000000;fill: none;"></path>
  <path d="M101.000000 31.000000C93.216599 35.429474,85.164520 39.369232,76.890671 42.796341C68.617142 46.223312,60.137955 49.130997,51.502472 51.502472" style="stroke:rgb(50.000000%,50.000000%,50.000000%); stroke-width: 3.000000;stroke-linecap: round;stroke-linejoin: round;stroke-miterlimit: 10.000000;fill: none;"></path>
  <path d="M101.000000 1.000000C89.880844 7.327820,78.377884 12.956055,66.558090 17.851913C54.738770 22.747589,42.625641 26.901428,30.289246 30.289246" style="stroke:rgb(50.000000%,50.000000%,50.000000%); stroke-width: 3.000000;stroke-linecap: round;stroke-linejoin: round;stroke-miterlimit: 10.000000;fill: none;"></path>
  <path d="M93.928925 93.928925C93.590134 95.162613,93.174728 96.373978,92.685135 97.555954C92.195557 98.737885,91.632751 99.888123,90.999969 101.000000" style="stroke:rgb(50.000000%,50.000000%,50.000000%); stroke-width: 3.000000;stroke-linecap: round;stroke-linejoin: round;stroke-miterlimit: 10.000000;fill: none;"></path>
  <path d="M93.928925 93.928925L30.289246 30.289246" style="stroke:rgb(50.000000%,50.000000%,50.000000%); stroke-width: 3.000000;stroke-linecap: round;stroke-linejoin: round;stroke-miterlimit: 10.000000;fill: none;"></path>
  <path d="M72.715698 72.715698C71.360504 77.650452,69.698883 82.495880,67.740494 87.223801C65.782181 91.951523,63.530945 96.552521,60.999908 101.000000" style="stroke:rgb(50.000000%,50.000000%,50.000000%); stroke-width: 3.000000;stroke-linecap: round;stroke-linejoin: round;stroke-miterlimit: 10.000000;fill: none;"></path>
  <path d="M51.502472 51.502472C49.130875 60.138290,46.223038 68.617813,42.795868 76.891632C39.368835 85.165161,35.429184 93.216904,30.999847 101.000000" style="stroke:rgb(50.000000%,50.000000%,50.000000%); stroke-width: 3.000000;stroke-linecap: round;stroke-linejoin: round;stroke-miterlimit: 10.000000;fill: none;"></path>
  <path d="M30.289246 30.289246C26.901245 42.626129,22.747208 54.739731,17.851227 66.559509C12.955460 78.378799,7.327393 89.881287,0.999786 101.000000" style="stroke:rgb(50.000000%,50.000000%,50.000000%); stroke-width: 3.000000;stroke-linecap: round;stroke-linejoin: round;stroke-miterlimit: 10.000000;fill: none;"></path>
  <path d="M91.000000 101.000000C91.632782 102.111908,92.195618 103.262207,92.685196 104.444183C93.174759 105.626114,93.590149 106.837433,93.928925 108.071075" style="stroke:rgb(50.000000%,50.000000%,50.000000%); stroke-width: 3.000000;stroke-linecap: round;stroke-linejoin: round;stroke-miterlimit: 10.000000;fill: none;"></path>
  <path d="M91.000000 101.000000L1.000000 101.000000" style="stroke:rgb(50.000000%,50.000000%,50.000000%); stroke-width: 3.000000;stroke-linecap: round;stroke-linejoin: round;stroke-miterlimit: 10.000000;fill: none;"></path>
  <path d="M61.000000 101.000000C63.531128 105.447662,65.782425 110.048843,67.740768 114.776764C69.699036 119.504501,71.360565 124.349747,72.715698 129.284302" style="stroke:rgb(50.000000%,50.000000%,50.000000%); stroke-width: 3.000000;stroke-linecap: round;stroke-linejoin: round;stroke-miterlimit: 10.000000;fill: none;"></path>
  <path d="M31.000000 101.000000C35.429474 108.783401,39.369232 116.835480,42.796341 125.109329C46.223312 133.382858,49.130997 141.862045,51.502472 150.497528" style="stroke:rgb(50.000000%,50.000000%,50.000000%); stroke-width: 3.000000;stroke-linecap: round;stroke-linejoin: round;stroke-miterlimit: 10.000000;fill: none;"></path>
  <path d="M1.000000 101.000000C7.327820 112.119156,12.956055 123.622116,17.851913 135.441910C22.747589 147.261230,26.901428 159.374359,30.289246 171.710754" style="stroke:rgb(50.000000%,50.000000%,50.000000%); stroke-width: 3.000000;stroke-linecap: round;stroke-linejoin: round;stroke-miterlimit: 10.000000;fill: none;"></path>
  <path d="M93.928925 108.071075C95.162613 108.409866,96.373978 108.825272,97.555954 109.314865C98.737885 109.804443,99.888123 110.367249,101.000000 111.000031" style="stroke:rgb(50.000000%,50.000000%,50.000000%); stroke-width: 3.000000;stroke-linecap: round;stroke-linejoin: round;stroke-miterlimit: 10.000000;fill: none;"></path>
  <path d="M93.928925 108.071075L30.289246 171.710754" style="stroke:rgb(50.000000%,50.000000%,50.000000%); stroke-width: 3.000000;stroke-linecap: round;stroke-linejoin: round;stroke-miterlimit: 10.000000;fill: none;"></path>
  <path d="M72.715698 129.284302C77.650452 130.639496,82.495880 132.301117,87.223801 134.259506C91.951523 136.217819,96.552521 138.469055,101.000000 141.000092" style="stroke:rgb(50.000000%,50.000000%,50.000000%); stroke-width: 3.000000;stroke-linecap: round;stroke-linejoin: round;stroke-miterlimit: 10.000000;fill: none;"></path>
  <path d="M51.502472 150.497528C60.138290 152.869125,68.617813 155.776962,76.891632 159.204132C85.165161 162.631165,93.216904 166.570816,101.000000 171.000153" style="stroke:rgb(50.000000%,50.000000%,50.000000%); stroke-width: 3.000000;stroke-linecap: round;stroke-linejoin: round;stroke-miterlimit: 10.000000;fill: none;"></path>
  <path d="M30.289246 171.710754C42.626129 175.098755,54.739731 179.252792,66.559509 184.148773C78.378799 189.044540,89.881287 194.672607,101.000000 201.000214" style="stroke:rgb(50.000000%,50.000000%,50.000000%); stroke-width: 3.000000;stroke-linecap: round;stroke-linejoin: round;stroke-miterlimit: 10.000000;fill: none;"></path>
  <path d="M101.000000 111.000000C102.111908 110.367218,103.262207 109.804382,104.444183 109.314804C105.626114 108.825241,106.837433 108.409851,108.071075 108.071075" style="stroke:rgb(50.000000%,50.000000%,50.000000%); stroke-width: 3.000000;stroke-linecap: round;stroke-linejoin: round;stroke-miterlimit: 10.000000;fill: none;"></path>
  <path d="M101.000000 111.000000L101.000000 201.000000" style="stroke:rgb(50.000000%,50.000000%,50.000000%); stroke-width: 3.000000;stroke-linecap: round;stroke-linejoin: round;stroke-miterlimit: 10.000000;fill: none;"></path>
  <path d="M101.000000 141.000000C105.447662 138.468872,110.048843 136.217575,114.776764 134.259232C119.504501 132.300964,124.349747 130.639435,129.284302 129.284302" style="stroke:rgb(50.000000%,50.000000%,50.000000%); stroke-width: 3.000000;stroke-linecap: round;stroke-linejoin: round;stroke-miterlimit: 10.000000;fill: none;"></path>
  <path d="M101.000000 171.000000C108.783401 166.570526,116.835480 162.630768,125.109329 159.203659C133.382858 155.776688,141.862045 152.869003,150.497528 150.497528" style="stroke:rgb(50.000000%,50.000000%,50.000000%); stroke-width: 3.000000;stroke-linecap: round;stroke-linejoin: round;stroke-miterlimit: 10.000000;fill: none;"></path>
  <path d="M101.000000 201.000000C112.119156 194.672180,123.622116 189.043945,135.441910 184.148087C147.261230 179.252411,159.374359 175.098572,171.710754 171.710754" style="stroke:rgb(50.000000%,50.000000%,50.000000%); stroke-width: 3.000000;stroke-linecap: round;stroke-linejoin: round;stroke-miterlimit: 10.000000;fill: none;"></path>
  <path d="M108.071075 108.071075C108.409866 106.837387,108.825272 105.626022,109.314865 104.444046C109.804443 103.262115,110.367249 102.111877,111.000031 101.000000" style="stroke:rgb(50.000000%,50.000000%,50.000000%); stroke-width: 3.000000;stroke-linecap: round;stroke-linejoin: round;stroke-miterlimit: 10.000000;fill: none;"></path>
  <path d="M108.071075 108.071075L171.710754 171.710754" style="stroke:rgb(50.000000%,50.000000%,50.000000%); stroke-width: 3.000000;stroke-linecap: round;stroke-linejoin: round;stroke-miterlimit: 10.000000;fill: none;"></path>
  <path d="M129.284302 129.284302C130.639496 124.349548,132.301117 119.504120,134.259506 114.776199C136.217819 110.048477,138.469055 105.447479,141.000092 101.000000" style="stroke:rgb(50.000000%,50.000000%,50.000000%); stroke-width: 3.000000;stroke-linecap: round;stroke-linejoin: round;stroke-miterlimit: 10.000000;fill: none;"></path>
  <path d="M150.497528 150.497528C152.869125 141.861710,155.776962 133.382187,159.204132 125.108368C162.631165 116.834839,166.570816 108.783096,171.000153 101.000000" style="stroke:rgb(50.000000%,50.000000%,50.000000%); stroke-width: 3.000000;stroke-linecap: round;stroke-linejoin: round;stroke-miterlimit: 10.000000;fill: none;"></path>
  <path d="M171.710754 171.710754C175.098755 159.373871,179.252792 147.260269,184.148773 135.440491C189.044540 123.621201,194.672607 112.118713,201.000214 101.000000" style="stroke:rgb(50.000000%,50.000000%,50.000000%); stroke-width: 3.000000;stroke-linecap: round;stroke-linejoin: round;stroke-miterlimit: 10.000000;fill: none;"></path>
</svg>
