<?xml version="1.0"?>
<!-- Created by MetaPost 1.803 on 2016.08.21:1654 -->
<svg version="1.1" xmlns="http://www.w3.org/2000/svg" xmlns:xlink="http://www.w3.org/1999/xlink" width="204.000000" height="204.000000" viewBox="0 0 204.000000 204.000000">
<!-- Original BoundingBox: -102.000000 -102.000000 102.000000 102.000000 -->
  <path d="M112.000000 102.000000C110.829880 101.279419,109.916885 100.208069,109.391022 98.938461C108.865158 97.668900,108.753204 96.265808,109.071075 94.928925" style="stroke:rgb(39.215088%,47.058105%,50.981140%); stroke-width: 4.000000;stroke-linecap: round;stroke-linejoin: round;stroke-miterlimit: 10.000000;fill: none;"></path>
  <path d="M112.000000 102.000000L202.000000 102.000000" style="stroke:rgb(39.215088%,47.058105%,50.981140%); stroke-width: 4.000000;stroke-linecap: round;stroke-linejoin: round;stroke-miterlimit: 10.000000;fill: none;"></path>
  <path d="M139.000000 102.000000C134.670532 99.333847,131.292480 95.369843,129.346771 90.672318C127.401123 85.974945,126.986862 80.783493,128.162979 75.837021" style="stroke:rgb(39.215088%,47.058105%,50.981140%); stroke-width: 4.000000;stroke-linecap: round;stroke-linejoin: round;stroke-miterlimit: 10.000000;fill: none;"></path>
  <path d="M170.000000 102.000000C162.043152 97.100052,155.834839 89.814865,152.258926 81.181564C148.683121 72.548538,147.921799 63.007523,150.083313 53.916687" style="stroke:rgb(39.215088%,47.058105%,50.981140%); stroke-width: 4.000000;stroke-linecap: round;stroke-linejoin: round;stroke-miterlimit: 10.000000;fill: none;"></path>
  <path d="M197.000000 102.000000C185.883820 95.154480,177.210449 84.976639,172.214691 72.915421C167.219086 60.854584,166.155457 47.525208,169.175217 34.824783" style="stroke:rgb(39.215088%,47.058105%,50.981140%); stroke-width: 4.000000;stroke-linecap: round;stroke-linejoin: round;stroke-miterlimit: 10.000000;fill: none;"></path>
  <path d="M109.071075 94.928925C107.734146 95.246811,106.330994 95.134827,105.061401 94.608917C103.791840 94.083038,102.720551 93.170074,102.000000 91.999969" style="stroke:rgb(39.215088%,47.058105%,50.981140%); stroke-width: 4.000000;stroke-linecap: round;stroke-linejoin: round;stroke-miterlimit: 10.000000;fill: none;"></path>
  <path d="M109.071075 94.928925L172.710754 31.289246" style="stroke:rgb(39.215088%,47.058105%,50.981140%); stroke-width: 4.000000;stroke-linecap: round;stroke-linejoin: round;stroke-miterlimit: 10.000000;fill: none;"></path>
  <path d="M128.162979 75.837021C123.216324 77.013168,118.024704 76.598831,113.327225 74.653000C108.629883 72.707245,104.666046 69.329254,102.000000 64.999908" style="stroke:rgb(39.215088%,47.058105%,50.981140%); stroke-width: 4.000000;stroke-linecap: round;stroke-linejoin: round;stroke-miterlimit: 10.000000;fill: none;"></path>
  <path d="M150.083313 53.916687C140.992188 56.078247,131.450821 55.316788,122.817596 51.740662C114.184631 48.164673,106.899780 41.956482,102.000000 33.999847" style="stroke:rgb(39.215088%,47.058105%,50.981140%); stroke-width: 4.000000;stroke-linecap: round;stroke-linejoin: round;stroke-miterlimit: 10.000000;fill: none;"></path>
  <path d="M169.175217 34.824783C156.474365 37.844604,143.144516 36.780777,131.083420 31.784744C119.022675 26.788849,108.845276 18.115662,102.000000 6.999786" style="stroke:rgb(39.215088%,47.058105%,50.981140%); stroke-width: 4.000000;stroke-linecap: round;stroke-linejoin: round;stroke-miterlimit: 10.000000;fill: none;"></path>
  <path d="M102.000000 92.000000C101.279419 93.170120,100.208069 94.083115,98.938461 94.608978C97.668900 95.134842,96.265808 95.246796,94.928925 94.928925" style="stroke:rgb(39.215088%,47.058105%,50.981140%); stroke-width: 4.000000;stroke-linecap: round;stroke-linejoin: round;stroke-miterlimit: 10.000000;fill: none;"></path>
  <path d="M102.000000 92.000000L102.000000 2.000000" style="stroke:rgb(39.215088%,47.058105%,50.981140%); stroke-width: 4.000000;stroke-linecap: round;stroke-linejoin: round;stroke-miterlimit: 10.000000;fill: none;"></path>
  <path d="M102.000000 65.000000C99.333847 69.329468,95.369843 72.707520,90.672318 74.653229C85.974945 76.598877,80.783493 77.013138,75.837021 75.837021" style="stroke:rgb(39.215088%,47.058105%,50.981140%); stroke-width: 4.000000;stroke-linecap: round;stroke-linejoin: round;stroke-miterlimit: 10.000000;fill: none;"></path>
  <path d="M102.000000 34.000000C97.100052 41.956848,89.814865 48.165161,81.181564 51.741074C72.548538 55.316879,63.007523 56.078201,53.916687 53.916687" style="stroke:rgb(39.215088%,47.058105%,50.981140%); stroke-width: 4.000000;stroke-linecap: round;stroke-linejoin: round;stroke-miterlimit: 10.000000;fill: none;"></path>
  <path d="M102.000000 7.000000C95.154480 18.116180,84.976639 26.789551,72.915421 31.785309C60.854584 36.780914,47.525208 37.844543,34.824783 34.824783" style="stroke:rgb(39.215088%,47.058105%,50.981140%); stroke-width: 4.000000;stroke-linecap: round;stroke-linejoin: round;stroke-miterlimit: 10.000000;fill: none;"></path>
  <path d="M94.928925 94.928925C95.246811 96.265854,95.134827 97.669006,94.608917 98.938599C94.083038 100.208160,93.170074 101.279449,91.999969 102.000000" style="stroke:rgb(39.215088%,47.058105%,50.981140%); stroke-width: 4.000000;stroke-linecap: round;stroke-linejoin: round;stroke-miterlimit: 10.000000;fill: none;"></path>
  <path d="M94.928925 94.928925L31.289246 31.289246" style="stroke:rgb(39.215088%,47.058105%,50.981140%); stroke-width: 4.000000;stroke-linecap: round;stroke-linejoin: round;stroke-miterlimit: 10.000000;fill: none;"></path>
  <path d="M75.837021 75.837021C77.013168 80.783676,76.598831 85.975296,74.653000 90.672775C72.707245 95.370117,69.329254 99.333954,64.999908 102.000000" style="stroke:rgb(39.215088%,47.058105%,50.981140%); stroke-width: 4.000000;stroke-linecap: round;stroke-linejoin: round;stroke-miterlimit: 10.000000;fill: none;"></path>
  <path d="M53.916687 53.916687C56.078247 63.007813,55.316788 72.549179,51.740662 81.182404C48.164673 89.815369,41.956482 97.100220,33.999847 102.000000" style="stroke:rgb(39.215088%,47.058105%,50.981140%); stroke-width: 4.000000;stroke-linecap: round;stroke-linejoin: round;stroke-miterlimit: 10.000000;fill: none;"></path>
  <path d="M34.824783 34.824783C37.844604 47.525635,36.780777 60.855484,31.784744 72.916580C26.788849 84.977325,18.115662 95.154724,6.999786 102.000000" style="stroke:rgb(39.215088%,47.058105%,50.981140%); stroke-width: 4.000000;stroke-linecap: round;stroke-linejoin: round;stroke-miterlimit: 10.000000;fill: none;"></path>
  <path d="M92.000000 102.000000C93.170120 102.720581,94.083115 103.791931,94.608978 105.061539C95.134842 106.331100,95.246796 107.734192,94.928925 109.071075" style="stroke:rgb(39.215088%,47.058105%,50.981140%); stroke-width: 4.000000;stroke-linecap: round;stroke-linejoin: round;stroke-miterlimit: 10.000000;fill: none;"></path>
  <path d="M92.000000 102.000000L2.000000 102.000000" style="stroke:rgb(39.215088%,47.058105%,50.981140%); stroke-width: 4.000000;stroke-linecap: round;stroke-linejoin: round;stroke-miterlimit: 10.000000;fill: none;"></path>
  <path d="M65.000000 102.000000C69.329468 104.666153,72.707520 108.630157,74.653229 113.327682C76.598877 118.025055,77.013138 123.216507,75.837021 128.162979" style="stroke:rgb(39.215088%,47.058105%,50.981140%); stroke-width: 4.000000;stroke-linecap: round;stroke-linejoin: round;stroke-miterlimit: 10.000000;fill: none;"></path>
  <path d="M34.000000 102.000000C41.956848 106.899948,48.165161 114.185135,51.741074 122.818436C55.316879 131.451462,56.078201 140.992477,53.916687 150.083313" style="stroke:rgb(39.215088%,47.058105%,50.981140%); stroke-width: 4.000000;stroke-linecap: round;stroke-linejoin: round;stroke-miterlimit: 10.000000;fill: none;"></path>
  <path d="M7.000000 102.000000C18.116180 108.845520,26.789551 119.023361,31.785309 131.084579C36.780914 143.145416,37.844543 156.474792,34.824783 169.175217" style="stroke:rgb(39.215088%,47.058105%,50.981140%); stroke-width: 4.000000;stroke-linecap: round;stroke-linejoin: round;stroke-miterlimit: 10.000000;fill: none;"></path>
  <path d="M94.928925 109.071075C96.265854 108.753189,97.669006 108.865173,98.938599 109.391083C100.208160 109.916962,101.279449 110.829926,102.000000 112.000031" style="stroke:rgb(39.215088%,47.058105%,50.981140%); stroke-width: 4.000000;stroke-linecap: round;stroke-linejoin: round;stroke-miterlimit: 10.000000;fill: none;"></path>
  <path d="M94.928925 109.071075L31.289246 172.710754" style="stroke:rgb(39.215088%,47.058105%,50.981140%); stroke-width: 4.000000;stroke-linecap: round;stroke-linejoin: round;stroke-miterlimit: 10.000000;fill: none;"></path>
  <path d="M75.837021 128.162979C80.783676 126.986832,85.975296 127.401169,90.672775 129.347000C95.370117 131.292755,99.333954 134.670746,102.000000 139.000092" style="stroke:rgb(39.215088%,47.058105%,50.981140%); stroke-width: 4.000000;stroke-linecap: round;stroke-linejoin: round;stroke-miterlimit: 10.000000;fill: none;"></path>
  <path d="M53.916687 150.083313C63.007813 147.921753,72.549179 148.683212,81.182404 152.259338C89.815369 155.835327,97.100220 162.043518,102.000000 170.000153" style="stroke:rgb(39.215088%,47.058105%,50.981140%); stroke-width: 4.000000;stroke-linecap: round;stroke-linejoin: round;stroke-miterlimit: 10.000000;fill: none;"></path>
  <path d="M34.824783 169.175217C47.525635 166.155396,60.855484 167.219223,72.916580 172.215256C84.977325 177.211151,95.154724 185.884338,102.000000 197.000214" style="stroke:rgb(39.215088%,47.058105%,50.981140%); stroke-width: 4.000000;stroke-linecap: round;stroke-linejoin: round;stroke-miterlimit: 10.000000;fill: none;"></path>
  <path d="M102.000000 112.000000C102.720581 110.829880,103.791931 109.916885,105.061539 109.391022C106.331100 108.865158,107.734192 108.753204,109.071075 109.071075" style="stroke:rgb(39.215088%,47.058105%,50.981140%); stroke-width: 4.000000;stroke-linecap: round;stroke-linejoin: round;stroke-miterlimit: 10.000000;fill: none;"></path>
  <path d="M102.000000 112.000000L102.000000 202.000000" style="stroke:rgb(39.215088%,47.058105%,50.981140%); stroke-width: 4.000000;stroke-linecap: round;stroke-linejoin: round;stroke-miterlimit: 10.000000;fill: none;"></path>
  <path d="M102.000000 139.000000C104.666153 134.670532,108.630157 131.292480,113.327682 129.346771C118.025055 127.401123,123.216507 126.986862,128.162979 128.162979" style="stroke:rgb(39.215088%,47.058105%,50.981140%); stroke-width: 4.000000;stroke-linecap: round;stroke-linejoin: round;stroke-miterlimit: 10.000000;fill: none;"></path>
  <path d="M102.000000 170.000000C106.899948 162.043152,114.185135 155.834839,122.818436 152.258926C131.451462 148.683121,140.992477 147.921799,150.083313 150.083313" style="stroke:rgb(39.215088%,47.058105%,50.981140%); stroke-width: 4.000000;stroke-linecap: round;stroke-linejoin: round;stroke-miterlimit: 10.000000;fill: none;"></path>
  <path d="M102.000000 197.000000C108.845520 185.883820,119.023361 177.210449,131.084579 172.214691C143.145416 167.219086,156.474792 166.155457,169.175217 169.175217" style="stroke:rgb(39.215088%,47.058105%,50.981140%); stroke-width: 4.000000;stroke-linecap: round;stroke-linejoin: round;stroke-miterlimit: 10.000000;fill: none;"></path>
  <path d="M109.071075 109.071075C108.753189 107.734146,108.865173 106.330994,109.391083 105.061401C109.916962 103.791840,110.829926 102.720551,112.000031 102.000000" style="stroke:rgb(39.215088%,47.058105%,50.981140%); stroke-width: 4.000000;stroke-linecap: round;stroke-linejoin: round;stroke-miterlimit: 10.000000;fill: none;"></path>
  <path d="M109.071075 109.071075L172.710754 172.710754" style="stroke:rgb(39.215088%,47.058105%,50.981140%); stroke-width: 4.000000;stroke-linecap: round;stroke-linejoin: round;stroke-miterlimit: 10.000000;fill: none;"></path>
  <path d="M128.162979 128.162979C126.986832 123.216324,127.401169 118.024704,129.347000 113.327225C131.292755 108.629883,134.670746 104.666046,139.000092 102.000000" style="stroke:rgb(39.215088%,47.058105%,50.981140%); stroke-width: 4.000000;stroke-linecap: round;stroke-linejoin: round;stroke-miterlimit: 10.000000;fill: none;"></path>
  <path d="M150.083313 150.083313C147.921753 140.992188,148.683212 131.450821,152.259338 122.817596C155.835327 114.184631,162.043518 106.899780,170.000153 102.000000" style="stroke:rgb(39.215088%,47.058105%,50.981140%); stroke-width: 4.000000;stroke-linecap: round;stroke-linejoin: round;stroke-miterlimit: 10.000000;fill: none;"></path>
  <path d="M169.175217 169.175217C166.155396 156.474365,167.219223 143.144516,172.215256 131.083420C177.211151 119.022675,185.884338 108.845276,197.000214 102.000000" style="stroke:rgb(39.215088%,47.058105%,50.981140%); stroke-width: 4.000000;stroke-linecap: round;stroke-linejoin: round;stroke-miterlimit: 10.000000;fill: none;"></path>
</svg>
