<?xml version="1.0"?>
<!-- Created by MetaPost 1.803 on 2016.08.21:1605 -->
<svg version="1.1" xmlns="http://www.w3.org/2000/svg" xmlns:xlink="http://www.w3.org/1999/xlink" width="183.205566" height="210.000854" viewBox="0 0 183.205566 210.000854">
<!-- Original BoundingBox: -91.602783 -105.000427 91.602783 105.000427 -->
  <path d="M91.000000 105.000000L177.602783 55.000000" style="stroke:rgb(0.000000%,0.000000%,0.000000%); stroke-width: 10.000000;stroke-linecap: round;stroke-linejoin: round;stroke-miterlimit: 10.000000;fill: none;"></path>
  <path d="M134.301392 80.000000C126.145386 77.821274,118.311234 74.579742,111.000244 70.358749C103.689209 66.137711,96.964844 60.973801,91.000000 54.999786" style="stroke:rgb(0.000000%,0.000000%,0.000000%); stroke-width: 10.000000;stroke-linecap: round;stroke-linejoin: round;stroke-miterlimit: 10.000000;fill: none;"></path>
  <path d="M177.602783 55.000000C161.290756 50.642563,145.622421 44.159515,131.000488 35.717499C116.378433 27.275436,102.929672 16.947632,91.000000 4.999573" style="stroke:rgb(0.000000%,0.000000%,0.000000%); stroke-width: 10.000000;stroke-linecap: round;stroke-linejoin: round;stroke-miterlimit: 10.000000;fill: none;"></path>
  <path d="M91.000000 105.000000L91.000000 5.000000" style="stroke:rgb(0.000000%,0.000000%,0.000000%); stroke-width: 10.000000;stroke-linecap: round;stroke-linejoin: round;stroke-miterlimit: 10.000000;fill: none;"></path>
  <path d="M91.000000 55.000000C85.035187 60.973938,78.310883 66.137756,70.999924 70.358749C63.688904 74.579773,55.854660 77.821289,47.698608 80.000000" style="stroke:rgb(0.000000%,0.000000%,0.000000%); stroke-width: 10.000000;stroke-linecap: round;stroke-linejoin: round;stroke-miterlimit: 10.000000;fill: none;"></path>
  <path d="M91.000000 5.000000C79.070389 16.947891,65.621765 27.275543,50.999847 35.717514C36.377808 44.159546,20.709335 50.642609,4.397217 55.000000" style="stroke:rgb(0.000000%,0.000000%,0.000000%); stroke-width: 10.000000;stroke-linecap: round;stroke-linejoin: round;stroke-miterlimit: 10.000000;fill: none;"></path>
  <path d="M91.000000 105.000000L4.397217 55.000000" style="stroke:rgb(0.000000%,0.000000%,0.000000%); stroke-width: 10.000000;stroke-linecap: round;stroke-linejoin: round;stroke-miterlimit: 10.000000;fill: none;"></path>
  <path d="M47.698608 80.000000C49.889801 88.152664,50.999649 96.558014,50.999664 104.999985C50.999695 113.442062,49.889801 121.847488,47.698608 130.000214" style="stroke:rgb(0.000000%,0.000000%,0.000000%); stroke-width: 10.000000;stroke-linecap: round;stroke-linejoin: round;stroke-miterlimit: 10.000000;fill: none;"></path>
  <path d="M4.397217 55.000000C8.779617 71.305313,10.999344 88.116028,10.999359 105.000000C10.999374 121.884109,8.779648 138.694977,4.397217 155.000427" style="stroke:rgb(0.000000%,0.000000%,0.000000%); stroke-width: 10.000000;stroke-linecap: round;stroke-linejoin: round;stroke-miterlimit: 10.000000;fill: none;"></path>
  <path d="M91.000000 105.000000L4.397217 155.000000" style="stroke:rgb(0.000000%,0.000000%,0.000000%); stroke-width: 10.000000;stroke-linecap: round;stroke-linejoin: round;stroke-miterlimit: 10.000000;fill: none;"></path>
  <path d="M47.698608 130.000000C55.854614 132.178726,63.688766 135.420258,70.999756 139.641251C78.310791 143.862289,85.035156 149.026199,91.000000 155.000214" style="stroke:rgb(0.000000%,0.000000%,0.000000%); stroke-width: 10.000000;stroke-linecap: round;stroke-linejoin: round;stroke-miterlimit: 10.000000;fill: none;"></path>
  <path d="M4.397217 155.000000C20.709244 159.357437,36.377579 165.840485,50.999512 174.282501C65.621567 182.724564,79.070328 193.052368,91.000000 205.000427" style="stroke:rgb(0.000000%,0.000000%,0.000000%); stroke-width: 10.000000;stroke-linecap: round;stroke-linejoin: round;stroke-miterlimit: 10.000000;fill: none;"></path>
  <path d="M91.000000 105.000000L91.000000 205.000000" style="stroke:rgb(0.000000%,0.000000%,0.000000%); stroke-width: 10.000000;stroke-linecap: round;stroke-linejoin: round;stroke-miterlimit: 10.000000;fill: none;"></path>
  <path d="M91.000000 155.000000C96.964813 149.026062,103.689117 143.862244,111.000076 139.641251C118.311096 135.420227,126.145340 132.178711,134.301392 130.000000" style="stroke:rgb(0.000000%,0.000000%,0.000000%); stroke-width: 10.000000;stroke-linecap: round;stroke-linejoin: round;stroke-miterlimit: 10.000000;fill: none;"></path>
  <path d="M91.000000 205.000000C102.929611 193.052109,116.378235 182.724457,131.000153 174.282486C145.622192 165.840454,161.290665 159.357391,177.602783 155.000000" style="stroke:rgb(0.000000%,0.000000%,0.000000%); stroke-width: 10.000000;stroke-linecap: round;stroke-linejoin: round;stroke-miterlimit: 10.000000;fill: none;"></path>
  <path d="M91.000000 105.000000L177.602783 155.000000" style="stroke:rgb(0.000000%,0.000000%,0.000000%); stroke-width: 10.000000;stroke-linecap: round;stroke-linejoin: round;stroke-miterlimit: 10.000000;fill: none;"></path>
  <path d="M134.301392 130.000000C132.110199 121.847336,131.000351 113.441986,131.000336 105.000015C131.000305 96.557938,132.110199 88.152512,134.301392 79.999786" style="stroke:rgb(0.000000%,0.000000%,0.000000%); stroke-width: 10.000000;stroke-linecap: round;stroke-linejoin: round;stroke-miterlimit: 10.000000;fill: none;"></path>
  <path d="M177.602783 155.000000C173.220383 138.694687,171.000656 121.883972,171.000641 105.000000C171.000626 88.115891,173.220352 71.305023,177.602783 54.999573" style="stroke:rgb(0.000000%,0.000000%,0.000000%); stroke-width: 10.000000;stroke-linecap: round;stroke-linejoin: round;stroke-miterlimit: 10.000000;fill: none;"></path>
</svg>
